# xmcd
#
# Track frame offsets:
#	150
#	15250
#	28552
#	46651
#	61207
#	74565
#	88798
#	101732
#	113703
#	129484
#
# Disc length: 1968 seconds
#
# Revision: 1
# Processed by: cddbd v1.5.2PL0 Copyright (c) Steve Scherf et al.
# Submitted via: audiograbber 1.83.01
#
DISCID=7a07ae0a
DTITLE=Amie Comeaux - Moving Out
DYEAR=1994
DGENRE=Conutry
TTITLE0=Moving Out
TTITLE1=Takin'  It Back
TTITLE2=I Want The First To Last
TTITLE3=Blue
TTITLE4=Who's She To You
TTITLE5=You Belong To Me
TTITLE6=One Step Ahead Of You
TTITLE7=I Heard It From My Heart
TTITLE8=Oh No, Hot Love Again
TTITLE9=Written In The Stars
EXTD=
EXTT0=
EXTT1=
EXTT2=
EXTT3=
EXTT4=
EXTT5=
EXTT6=
EXTT7=
EXTT8=
EXTT9=
PLAYORDER=
